<svg width="555" height="237" viewBox="0 0 555 237" fill="none" xmlns="http://www.w3.org/2000/svg">
<rect opacity="0.5" y="200" width="21" height="27" fill="white" fill-opacity="0.75"/>
<rect opacity="0.5" y="160" width="21" height="27" fill="white" fill-opacity="0.75"/>
<rect opacity="0.5" y="120" width="21" height="27" fill="white" fill-opacity="0.75"/>
<rect opacity="0.5" y="80" width="21" height="27" fill="white" fill-opacity="0.75"/>
<rect opacity="0.5" x="31" y="200" width="21" height="27" fill="white" fill-opacity="0.75"/>
<rect opacity="0.5" x="31" y="160" width="21" height="27" fill="white" fill-opacity="0.75"/>
<rect opacity="0.5" x="31" y="120" width="21" height="27" fill="white" fill-opacity="0.75"/>
<rect opacity="0.5" x="31" y="80" width="21" height="27" fill="white" fill-opacity="0.75"/>
<rect opacity="0.5" x="31" y="40" width="21" height="27" fill="white" fill-opacity="0.75"/>
<rect opacity="0.5" x="62" y="200" width="21" height="27" fill="white" fill-opacity="0.75"/>
<rect opacity="0.5" x="62" y="160" width="21" height="27" fill="white" fill-opacity="0.75"/>
<rect opacity="0.5" x="62" y="120" width="21" height="27" fill="white" fill-opacity="0.75"/>
<rect opacity="0.5" x="62" y="80" width="21" height="27" fill="white" fill-opacity="0.75"/>
<rect opacity="0.5" x="62" y="40" width="21" height="27" fill="white" fill-opacity="0.75"/>
<rect opacity="0.5" x="62" width="21" height="27" fill="white" fill-opacity="0.75"/>
<rect opacity="0.5" x="92" y="200" width="21" height="27" fill="white" fill-opacity="0.75"/>
<rect opacity="0.5" x="92" y="160" width="21" height="27" fill="white" fill-opacity="0.75"/>
<rect opacity="0.5" x="92" y="120" width="21" height="27" fill="white" fill-opacity="0.75"/>
<rect opacity="0.5" x="92" y="80" width="21" height="27" fill="white" fill-opacity="0.75"/>
<rect opacity="0.5" x="92" y="40" width="21" height="27" fill="white" fill-opacity="0.75"/>
<rect opacity="0.5" x="92" width="21" height="27" fill="white" fill-opacity="0.75"/>
<rect opacity="0.5" x="123" y="200" width="21" height="27" fill="white" fill-opacity="0.75"/>
<rect opacity="0.5" x="123" y="160" width="21" height="27" fill="white" fill-opacity="0.75"/>
<rect opacity="0.5" x="123" y="120" width="21" height="27" fill="white" fill-opacity="0.75"/>
<rect opacity="0.5" x="123" y="40" width="21" height="27" fill="white" fill-opacity="0.75"/>
<rect opacity="0.5" x="123" width="21" height="27" fill="white" fill-opacity="0.75"/>
<rect opacity="0.5" x="154" y="200" width="21" height="27" fill="white" fill-opacity="0.75"/>
<rect opacity="0.5" x="154" y="160" width="21" height="27" fill="white" fill-opacity="0.75"/>
<rect opacity="0.5" x="154" y="120" width="21" height="27" fill="white" fill-opacity="0.75"/>
<rect opacity="0.5" x="154" y="80" width="21" height="27" fill="white" fill-opacity="0.75"/>
<rect opacity="0.5" x="154" y="40" width="21" height="27" fill="white" fill-opacity="0.75"/>
<rect opacity="0.5" x="185" y="200" width="21" height="27" fill="white" fill-opacity="0.75"/>
<rect opacity="0.5" x="185" y="160" width="21" height="27" fill="white" fill-opacity="0.75"/>
<rect opacity="0.5" x="185" y="120" width="21" height="27" fill="white" fill-opacity="0.75"/>
<rect opacity="0.5" x="185" y="80" width="21" height="27" fill="white" fill-opacity="0.75"/>
<rect opacity="0.5" x="185" y="40" width="21" height="27" fill="white" fill-opacity="0.75"/>
<rect opacity="0.5" x="185" width="21" height="27" fill="white" fill-opacity="0.75"/>
<rect opacity="0.5" x="216" y="200" width="21" height="27" fill="white" fill-opacity="0.75"/>
<rect opacity="0.5" x="216" y="160" width="21" height="27" fill="white" fill-opacity="0.75"/>
<rect opacity="0.5" x="216" y="120" width="21" height="27" fill="white" fill-opacity="0.75"/>
<rect opacity="0.5" x="216" width="21" height="27" fill="white" fill-opacity="0.75"/>
<rect opacity="0.5" x="246" y="200" width="21" height="27" fill="white" fill-opacity="0.75"/>
<rect opacity="0.5" x="246" y="160" width="21" height="27" fill="white" fill-opacity="0.75"/>
<rect opacity="0.5" x="246" y="120" width="21" height="27" fill="white" fill-opacity="0.75"/>
<rect opacity="0.5" x="246" y="80" width="21" height="27" fill="white" fill-opacity="0.75"/>
<rect opacity="0.5" x="246" y="40" width="21" height="27" fill="white" fill-opacity="0.75"/>
<rect opacity="0.5" x="277" y="200" width="21" height="27" fill="white" fill-opacity="0.75"/>
<rect opacity="0.5" x="277" y="160" width="21" height="27" fill="white" fill-opacity="0.75"/>
<rect opacity="0.5" x="277" y="120" width="21" height="27" fill="white" fill-opacity="0.75"/>
<rect opacity="0.5" x="277" y="80" width="21" height="27" fill="white" fill-opacity="0.75"/>
<rect opacity="0.5" x="277" y="40" width="21" height="27" fill="white" fill-opacity="0.75"/>
<rect opacity="0.5" x="277" width="21" height="27" fill="white" fill-opacity="0.75"/>
<rect opacity="0.5" x="308" y="200" width="21" height="27" fill="white" fill-opacity="0.75"/>
<rect opacity="0.5" x="308" y="160" width="21" height="27" fill="white" fill-opacity="0.75"/>
<rect opacity="0.5" x="308" y="120" width="21" height="27" fill="white" fill-opacity="0.75"/>
<rect opacity="0.5" x="308" y="80" width="21" height="27" fill="white" fill-opacity="0.75"/>
<rect opacity="0.5" x="308" y="40" width="21" height="27" fill="white" fill-opacity="0.75"/>
<rect opacity="0.5" x="308" width="21" height="27" fill="white" fill-opacity="0.75"/>
<rect opacity="0.5" x="339" y="200" width="21" height="27" fill="white" fill-opacity="0.75"/>
<rect opacity="0.5" x="339" y="160" width="21" height="27" fill="white" fill-opacity="0.75"/>
<rect opacity="0.5" x="339" y="120" width="21" height="27" fill="white" fill-opacity="0.75"/>
<rect opacity="0.5" x="339" y="80" width="21" height="27" fill="white" fill-opacity="0.75"/>
<rect opacity="0.5" x="339" y="40" width="21" height="27" fill="white" fill-opacity="0.75"/>
<rect opacity="0.5" x="370" y="200" width="21" height="27" fill="white" fill-opacity="0.75"/>
<rect opacity="0.5" x="370" y="120" width="21" height="27" fill="white" fill-opacity="0.75"/>
<rect opacity="0.5" x="370" y="80" width="21" height="27" fill="white" fill-opacity="0.75"/>
<rect opacity="0.5" x="370" y="40" width="21" height="27" fill="white" fill-opacity="0.75"/>
<rect opacity="0.5" x="370" width="21" height="27" fill="white" fill-opacity="0.75"/>
<rect opacity="0.5" x="401" y="200" width="21" height="27" fill="white" fill-opacity="0.75"/>
<rect opacity="0.5" x="401" y="160" width="21" height="27" fill="white" fill-opacity="0.75"/>
<rect opacity="0.5" x="401" y="120" width="21" height="27" fill="white" fill-opacity="0.75"/>
<rect opacity="0.5" x="401" y="80" width="21" height="27" fill="white" fill-opacity="0.75"/>
<rect opacity="0.5" x="401" y="40" width="21" height="27" fill="white" fill-opacity="0.75"/>
<rect opacity="0.5" x="401" width="21" height="27" fill="white" fill-opacity="0.75"/>
<rect opacity="0.5" x="431" y="200" width="21" height="27" fill="white" fill-opacity="0.75"/>
<rect opacity="0.5" x="431" y="160" width="21" height="27" fill="white" fill-opacity="0.75"/>
<rect opacity="0.5" x="431" y="120" width="21" height="27" fill="white" fill-opacity="0.75"/>
<rect opacity="0.5" x="431" y="80" width="21" height="27" fill="white" fill-opacity="0.75"/>
<rect opacity="0.5" x="462" y="200" width="21" height="27" fill="white" fill-opacity="0.75"/>
<rect opacity="0.5" x="462" y="160" width="21" height="27" fill="white" fill-opacity="0.75"/>
<rect opacity="0.5" x="462" y="120" width="21" height="27" fill="white" fill-opacity="0.75"/>
<rect opacity="0.5" x="462" y="80" width="21" height="27" fill="white" fill-opacity="0.75"/>
<rect opacity="0.5" x="462" y="40" width="21" height="27" fill="white" fill-opacity="0.75"/>
<rect opacity="0.5" x="462" width="21" height="27" fill="white" fill-opacity="0.75"/>
<rect opacity="0.5" x="493" y="200" width="21" height="27" fill="white" fill-opacity="0.75"/>
<rect opacity="0.5" x="493" y="160" width="21" height="27" fill="white" fill-opacity="0.75"/>
<rect opacity="0.5" x="493" y="120" width="21" height="27" fill="white" fill-opacity="0.75"/>
<rect opacity="0.5" x="493" y="40" width="21" height="27" fill="white" fill-opacity="0.75"/>
<rect opacity="0.5" x="493" width="21" height="27" fill="white" fill-opacity="0.75"/>
<rect opacity="0.5" x="524" y="200" width="21" height="27" fill="white" fill-opacity="0.75"/>
<rect opacity="0.5" x="524" y="160" width="21" height="27" fill="white" fill-opacity="0.75"/>
<rect opacity="0.5" x="524" y="120" width="21" height="27" fill="white" fill-opacity="0.75"/>
<rect opacity="0.5" x="524" y="80" width="21" height="27" fill="white" fill-opacity="0.75"/>
<rect opacity="0.5" x="524" width="21" height="27" fill="white" fill-opacity="0.75"/>
</svg>
