<svg id="momo-pc-logo" width="22" height="85" viewBox="0 0 22 85" fill="none" xmlns="http://www.w3.org/2000/svg">
<path d="M1.95557 77.5952L7.15631 72.9748C7.40928 72.7367 7.53577 72.4986 7.53577 72.2605C7.53577 72.0373 7.41672 71.8513 7.17864 71.7025L2.24574 68.4883C1.87373 68.2949 1.58356 68.0419 1.37523 67.7294C1.10738 67.3425 0.973459 66.9333 0.973459 66.5018C0.973459 65.8768 1.20411 65.3485 1.6654 64.917C2.1267 64.4706 2.68472 64.2474 3.33946 64.2474H9.70088C10.3556 64.2474 10.9136 64.4706 11.3749 64.917C11.8214 65.3485 12.0446 65.8768 12.0446 66.5018C12.0446 67.1119 11.8214 67.6401 11.3749 68.0865C10.9136 68.533 10.3556 68.7562 9.70088 68.7562H8.62949C8.45092 68.8454 8.36164 68.9496 8.36164 69.0687C8.36164 69.1877 8.45092 69.3067 8.62949 69.4258L11.5981 71.457C11.866 71.7546 11.9999 72.1117 11.9999 72.5284C11.9999 73.1087 11.7693 73.5998 11.308 74.0015L9.45535 75.631C9.12798 75.8393 8.9643 76.0327 8.9643 76.2113C8.9643 76.3899 9.13542 76.5164 9.47768 76.5908C10.1622 76.7247 10.7648 77.1339 11.2857 77.8184C11.7916 78.5029 12.0446 79.2395 12.0446 80.0282V80.7424C12.0446 81.7097 11.7023 82.543 11.0178 83.2424C10.3333 83.9269 9.50744 84.2691 8.5402 84.2691L4.47782 84.2691C3.51059 84.2691 2.68472 83.9269 2.00022 83.2424C1.31571 82.543 0.973459 81.7097 0.973459 80.7424L0.973459 80.0282C0.973459 78.9865 1.30083 78.1755 1.95557 77.5952Z" fill="black"/>
<path d="M0.906496 50.7374C0.906496 47.5976 1.81421 45.4027 3.62963 44.1527C4.38854 43.6319 5.29625 43.3194 6.35276 43.2153C7.45392 43.3194 8.39884 43.6319 9.1875 44.1527C11.0624 45.4027 11.9999 47.5976 11.9999 50.7374V55.6033C11.9999 58.7431 11.0624 60.938 9.1875 62.1879C8.39884 62.7087 7.45392 63.0212 6.35277 63.1254C5.29625 63.0212 4.38854 62.7087 3.62963 62.1879C1.81421 60.938 0.906496 58.7431 0.906496 55.6033L0.906496 50.7374ZM9.70088 51.1838C9.70088 49.7999 9.16518 48.8327 8.09379 48.2821C7.63249 48.044 7.08935 47.9026 6.46437 47.858C5.82451 47.9026 5.27393 48.044 4.81263 48.2821C3.72635 48.8327 3.18322 49.7999 3.18322 51.1838V51.8981C3.18322 53.2819 3.72635 54.2492 4.81263 54.7998C5.27393 55.0378 5.82451 55.1792 6.46437 55.2239C7.08935 55.1792 7.63249 55.0378 8.09379 54.7998C9.16518 54.2492 9.70088 53.2819 9.70088 51.8981V51.1838Z" fill="black"/>
<path d="M1.95557 35.4168L7.15631 30.7964C7.40928 30.5583 7.53577 30.3202 7.53577 30.0821C7.53577 29.8589 7.41672 29.6729 7.17863 29.5241L2.24574 26.3099C1.87373 26.1165 1.58356 25.8635 1.37523 25.551C1.10738 25.1641 0.973457 24.7549 0.973457 24.3233C0.973457 23.6984 1.2041 23.1701 1.6654 22.7386C2.1267 22.2922 2.68472 22.069 3.33946 22.069H9.70088C10.3556 22.069 10.9136 22.2922 11.3749 22.7386C11.8214 23.1701 12.0446 23.6984 12.0446 24.3233C12.0446 24.9334 11.8214 25.4617 11.3749 25.9081C10.9136 26.3545 10.3556 26.5777 9.70088 26.5777H8.62948C8.45092 26.667 8.36163 26.7712 8.36163 26.8902C8.36163 27.0093 8.45092 27.1283 8.62948 27.2474L11.5981 29.2786C11.866 29.5762 11.9999 29.9333 11.9999 30.35C11.9999 30.9303 11.7693 31.4214 11.308 31.8231L9.45535 33.4525C9.12798 33.6609 8.9643 33.8543 8.9643 34.0329C8.9643 34.2115 9.13542 34.3379 9.47767 34.4123C10.1622 34.5463 10.7648 34.9555 11.2857 35.64C11.7916 36.3245 12.0446 37.0611 12.0446 37.8497V38.564C12.0446 39.5312 11.7023 40.3645 11.0178 41.0639C10.3333 41.7484 9.50743 42.0907 8.5402 42.0907H4.47782C3.51059 42.0907 2.68472 41.7484 2.00021 41.0639C1.31571 40.3645 0.973458 39.5312 0.973458 38.564L0.973458 37.8497C0.973458 36.8081 1.30083 35.9971 1.95557 35.4168Z" fill="black"/>
<path d="M0.906494 8.55896C0.906494 5.41917 1.81421 3.22429 3.62963 1.97433C4.38853 1.45351 5.29625 1.14102 6.35276 1.03685C7.45392 1.14102 8.39883 1.45351 9.1875 1.97433C11.0624 3.22429 11.9999 5.41917 11.9999 8.55896V13.4249C11.9999 16.5647 11.0624 18.7596 9.1875 20.0095C8.39884 20.5303 7.45392 20.8428 6.35276 20.947C5.29625 20.8428 4.38854 20.5303 3.62963 20.0095C1.81421 18.7596 0.906494 16.5647 0.906494 13.4249L0.906494 8.55896ZM9.70088 9.00537C9.70088 7.62148 9.16518 6.65425 8.09378 6.10367C7.63249 5.86558 7.08935 5.72422 6.46437 5.67958C5.82451 5.72422 5.27393 5.86558 4.81263 6.10367C3.72635 6.65425 3.18321 7.62148 3.18321 9.00537V9.71964C3.18321 11.1035 3.72635 12.0708 4.81263 12.6213C5.27393 12.8594 5.82451 13.0008 6.46437 13.0454C7.08935 13.0008 7.63249 12.8594 8.09378 12.6213C9.16518 12.0708 9.70088 11.1035 9.70088 9.71964V9.00537Z" fill="black"/>
<path d="M20.2948 40.3246C20.2948 40.7096 20.2083 41.0556 20.0353 41.3625C19.8568 41.6694 19.6001 41.9122 19.2653 42.0907C18.9305 42.2693 18.5259 42.3586 18.0516 42.3586C17.5717 42.3586 17.1671 42.2693 16.8379 42.0907C16.5031 41.9066 16.2492 41.661 16.0762 41.3541C15.9032 41.0472 15.8167 40.704 15.8167 40.3246C15.8167 39.9061 15.9116 39.5322 16.1013 39.203C16.2855 38.8682 16.5449 38.6059 16.8797 38.4162C17.2146 38.2264 17.6052 38.1316 18.0516 38.1316C18.4924 38.1316 18.883 38.2264 19.2234 38.4162C19.5582 38.6059 19.8205 38.8682 20.0102 39.203C20.2 39.5322 20.2948 39.9061 20.2948 40.3246ZM20.253 42.5929H14.0422V41.9986H17.156L18.0432 42.0823L18.9305 42.0238H20.253V42.5929ZM19.7675 40.3664C19.7675 40.0539 19.6977 39.7749 19.5582 39.5294C19.4132 39.2839 19.2123 39.0886 18.9556 38.9435C18.6933 38.7984 18.392 38.7259 18.0516 38.7259C17.7056 38.7259 17.4043 38.7984 17.1476 38.9435C16.8909 39.0886 16.6928 39.2839 16.5533 39.5294C16.4082 39.7749 16.3357 40.0539 16.3357 40.3664C16.3357 40.6789 16.4082 40.9607 16.5533 41.2118C16.6928 41.4574 16.8909 41.6527 17.1476 41.7978C17.4043 41.9373 17.7056 42.007 18.0516 42.007C18.392 42.007 18.6933 41.9373 18.9556 41.7978C19.2123 41.6527 19.4132 41.4574 19.5582 41.2118C19.6977 40.9607 19.7675 40.6789 19.7675 40.3664Z" fill="black"/>
<path d="M20.2948 35.1037C20.2948 35.4776 20.2251 35.8041 20.0856 36.0831C19.9461 36.3621 19.7368 36.5797 19.4578 36.736C19.1788 36.8866 18.83 36.962 18.4115 36.962H15.8586V36.3677H18.3445C18.8133 36.3677 19.1676 36.2533 19.4076 36.0245C19.6419 35.7901 19.7591 35.4637 19.7591 35.0452C19.7591 34.7382 19.6977 34.4732 19.575 34.25C19.4466 34.0212 19.2625 33.8482 19.0225 33.731C18.7826 33.6083 18.4952 33.5469 18.1604 33.5469H15.8586V32.9526H20.253V33.5218H19.0476L19.2653 33.4297C19.5889 33.5692 19.8428 33.7868 20.027 34.0826C20.2055 34.3727 20.2948 34.7131 20.2948 35.1037Z" fill="black"/>
<path d="M20.2948 29.028C20.2948 29.413 20.2083 29.759 20.0353 30.0659C19.8568 30.3728 19.6001 30.6155 19.2653 30.7941C18.9305 30.9727 18.5259 31.0619 18.0516 31.0619C17.5717 31.0619 17.1671 30.9727 16.8379 30.7941C16.5031 30.6099 16.2492 30.3644 16.0762 30.0575C15.9032 29.7506 15.8167 29.4074 15.8167 29.028C15.8167 28.6094 15.9116 28.2356 16.1013 27.9063C16.2855 27.5715 16.5449 27.3093 16.8797 27.1195C17.2146 26.9298 17.6052 26.8349 18.0516 26.8349C18.4924 26.8349 18.883 26.9298 19.2234 27.1195C19.5582 27.3093 19.8205 27.5715 20.0102 27.9063C20.2 28.2356 20.2948 28.6094 20.2948 29.028ZM20.253 31.2963H14.0422V30.702L17.156 30.702L18.0432 30.7857L18.9305 30.7271H20.253V31.2963ZM19.7675 29.0698C19.7675 28.7573 19.6977 28.4783 19.5582 28.2328C19.4132 27.9873 19.2123 27.7919 18.9556 27.6469C18.6933 27.5018 18.392 27.4292 18.0516 27.4292C17.7056 27.4292 17.4043 27.5018 17.1476 27.6469C16.8909 27.7919 16.6928 27.9873 16.5533 28.2328C16.4082 28.4783 16.3357 28.7573 16.3357 29.0698C16.3357 29.3823 16.4082 29.6641 16.5533 29.9152C16.6928 30.1607 16.8909 30.356 17.1476 30.5011C17.4043 30.6406 17.7056 30.7104 18.0516 30.7104C18.392 30.7104 18.6933 30.6406 18.9556 30.5011C19.2123 30.356 19.4132 30.1607 19.5582 29.9152C19.6977 29.6641 19.7675 29.3823 19.7675 29.0698Z" fill="black"/>
<path d="M20.2948 23.3551C20.2948 23.7402 20.2083 24.0861 20.0353 24.393C19.8568 24.7 19.6001 24.9427 19.2653 25.1213C18.9305 25.2998 18.5259 25.3891 18.0516 25.3891C17.5717 25.3891 17.1671 25.2998 16.8379 25.1213C16.5031 24.9371 16.2492 24.6916 16.0762 24.3847C15.9032 24.0778 15.8167 23.7346 15.8167 23.3551C15.8167 22.9366 15.9116 22.5627 16.1013 22.2335C16.2855 21.8987 16.5449 21.6364 16.8797 21.4467C17.2146 21.257 17.6052 21.1621 18.0516 21.1621C18.4924 21.1621 18.883 21.257 19.2234 21.4467C19.5582 21.6364 19.8205 21.8987 20.0102 22.2335C20.2 22.5627 20.2948 22.9366 20.2948 23.3551ZM20.253 25.6235H14.0422V25.0292L17.156 25.0292L18.0432 25.1129L18.9305 25.0543H20.253V25.6235ZM19.7675 23.397C19.7675 23.0845 19.6977 22.8055 19.5582 22.5599C19.4132 22.3144 19.2123 22.1191 18.9556 21.974C18.6933 21.8289 18.392 21.7564 18.0516 21.7564C17.7056 21.7564 17.4043 21.8289 17.1476 21.974C16.8909 22.1191 16.6928 22.3144 16.5533 22.5599C16.4082 22.8055 16.3357 23.0845 16.3357 23.397C16.3357 23.7095 16.4082 23.9913 16.5533 24.2424C16.6928 24.4879 16.8909 24.6832 17.1476 24.8283C17.4043 24.9678 17.7056 25.0376 18.0516 25.0376C18.392 25.0376 18.6933 24.9678 18.9556 24.8283C19.2123 24.6832 19.4132 24.4879 19.5582 24.2424C19.6977 23.9913 19.7675 23.7095 19.7675 23.397Z" fill="black"/>
<path d="M20.253 19.9506H14.0422V19.3564L20.253 19.3563V19.9506Z" fill="black"/>
<path d="M20.2948 15.8362C20.2948 16.2938 20.2 16.6955 20.0102 17.0415C19.8149 17.3875 19.5499 17.6581 19.2151 17.8534C18.8747 18.0487 18.4868 18.1464 18.0516 18.1464C17.6163 18.1464 17.2313 18.0543 16.8965 17.8702C16.5617 17.6804 16.2994 17.4238 16.1097 17.1001C15.9144 16.7709 15.8167 16.4026 15.8167 15.9952C15.8167 15.5823 15.9116 15.2168 16.1013 14.8987C16.2855 14.5751 16.5477 14.3212 16.8881 14.137C17.2229 13.9529 17.6107 13.8608 18.0516 13.8608C18.0795 13.8608 18.1102 13.8636 18.1437 13.8692C18.1716 13.8692 18.2022 13.8692 18.2357 13.8692V17.6944H17.7921V14.1872L17.9679 14.4216C17.6498 14.4216 17.368 14.4914 17.1225 14.6309C16.8714 14.7648 16.6761 14.9489 16.5366 15.1833C16.3971 15.4177 16.3273 15.6883 16.3273 15.9952C16.3273 16.2966 16.3971 16.5672 16.5366 16.8071C16.6761 17.0471 16.8714 17.234 17.1225 17.368C17.3736 17.5019 17.661 17.5688 17.9846 17.5688H18.0767C18.4115 17.5688 18.7073 17.4963 18.9639 17.3512C19.2151 17.2005 19.4132 16.9941 19.5582 16.7318C19.6977 16.464 19.7675 16.1598 19.7675 15.8194C19.7675 15.5516 19.7201 15.3033 19.6252 15.0745C19.5303 14.8401 19.3853 14.6392 19.1899 14.4718L19.575 14.137C19.8093 14.3323 19.9879 14.5779 20.1107 14.8736C20.2334 15.1638 20.2948 15.4846 20.2948 15.8362Z" fill="black"/>
<path d="M18.2441 12.8959H17.7251V10.7028H18.2441V12.8959Z" fill="black"/>
<path d="M20.2948 7.10499C20.2948 7.48444 20.2083 7.82763 20.0353 8.13454C19.8568 8.44145 19.6029 8.68698 19.2736 8.87112C18.9388 9.04969 18.5315 9.13897 18.0516 9.13897C17.5717 9.13897 17.1671 9.04969 16.8379 8.87112C16.5031 8.69256 16.2492 8.44982 16.0762 8.14291C15.9032 7.836 15.8167 7.49002 15.8167 7.10499C15.8167 6.68648 15.9116 6.3126 16.1013 5.98337C16.2855 5.64856 16.5477 5.38629 16.8881 5.19656C17.2229 5.00684 17.6107 4.91198 18.0516 4.91198C18.498 4.91198 18.8886 5.00684 19.2234 5.19656C19.5582 5.38629 19.8205 5.64856 20.0102 5.98337C20.2 6.3126 20.2948 6.68648 20.2948 7.10499ZM21.8768 9.37334H15.8586V8.80416L17.1811 8.80416L18.06 8.86275L18.9472 8.77905H21.8768V9.37334ZM19.7675 7.14684C19.7675 6.83435 19.6977 6.55534 19.5582 6.30981C19.4132 6.06429 19.2123 5.86898 18.9556 5.72389C18.6933 5.57881 18.392 5.50627 18.0516 5.50627C17.7112 5.50627 17.4127 5.57881 17.156 5.72389C16.8993 5.86898 16.6984 6.06429 16.5533 6.30981C16.4082 6.55534 16.3357 6.83435 16.3357 7.14684C16.3357 7.45933 16.4082 7.74113 16.5533 7.99224C16.6984 8.23777 16.8993 8.43308 17.156 8.57816C17.4127 8.71767 17.7112 8.78742 18.0516 8.78742C18.392 8.78742 18.6933 8.71767 18.9556 8.57816C19.2123 8.43308 19.4132 8.23777 19.5582 7.99224C19.6977 7.74113 19.7675 7.45933 19.7675 7.14684Z" fill="black"/>
<path d="M20.2948 1.87578C20.2948 2.31104 20.2 2.70165 20.0102 3.04763C19.8149 3.38802 19.5499 3.65587 19.2151 3.85117C18.8747 4.04648 18.4868 4.14413 18.0516 4.14413C17.6107 4.14413 17.2229 4.04648 16.8881 3.85117C16.5533 3.65587 16.291 3.38802 16.1013 3.04763C15.9116 2.70165 15.8167 2.31104 15.8167 1.87578C15.8167 1.50191 15.8893 1.16431 16.0343 0.862979C16.1794 0.561649 16.3971 0.324491 16.6872 0.151505L16.9886 0.59513C16.7653 0.745795 16.6007 0.932732 16.4947 1.15594C16.3887 1.37915 16.3357 1.62189 16.3357 1.88415C16.3357 2.19665 16.4082 2.47845 16.5533 2.72955C16.6928 2.98066 16.8909 3.17876 17.1476 3.32384C17.4043 3.46893 17.7056 3.54147 18.0516 3.54147C18.3976 3.54147 18.6989 3.46893 18.9556 3.32384C19.2123 3.17876 19.4132 2.98066 19.5582 2.72955C19.6977 2.47845 19.7675 2.19665 19.7675 1.88415C19.7675 1.62189 19.7145 1.37915 19.6085 1.15594C19.5024 0.932732 19.3406 0.745795 19.123 0.59513L19.4243 0.151505C19.7089 0.32449 19.9265 0.561649 20.0772 0.862979C20.2223 1.16431 20.2948 1.50191 20.2948 1.87578Z" fill="black"/>
</svg>
