<svg class="star" width="211" height="237" viewBox="0 0 211 237" fill="none" xmlns="http://www.w3.org/2000/svg">
<path d="M86.7536 15.2648C90.8677 -5.037 119.882 -5.037 123.997 15.2648L130.353 46.632C132.622 57.828 144.187 64.505 155.017 60.8719L185.36 50.6932C204.999 44.1053 219.507 69.2327 203.982 82.9465L179.995 104.135C171.434 111.698 171.434 125.052 179.995 132.615L203.982 153.803C219.507 167.517 204.999 192.645 185.36 186.057L155.017 175.878C144.187 172.245 132.622 178.922 130.353 190.118L123.997 221.485C119.882 241.787 90.8677 241.787 86.7536 221.485L80.397 190.118C78.1281 178.922 66.5633 172.245 55.7329 175.878L25.3898 186.057C5.75084 192.645 -8.75649 167.517 6.76831 153.803L30.7548 132.615C39.3164 125.052 39.3164 111.698 30.7548 104.135L6.76832 82.9465C-8.75648 69.2327 5.75083 44.1053 25.3898 50.6932L55.7329 60.8719C66.5633 64.505 78.1281 57.828 80.397 46.632L86.7536 15.2648Z" fill="white" fill-opacity="0.5"/>
</svg>
